<svg width="470" height="493" viewBox="0 0 470 493" fill="none" xmlns="http://www.w3.org/2000/svg">
<rect x="132.374" y="68.2988" width="293.671" height="102.507" transform="rotate(48.2435 132.374 68.2988)" fill="white" stroke="black" stroke-width="16.7359"/>
<path d="M230.698 105.955L432.63 332.149L356.161 400.415L154.229 174.221L230.698 105.955Z" fill="white" stroke="black" stroke-width="16.7359"/>
<mask id="path-3-inside-1_1_37" fill="white">
<path fill-rule="evenodd" clip-rule="evenodd" d="M195.359 126.286L339.764 288.042L286.82 335.308L142.414 173.551L195.359 126.286Z"/>
</mask>
<path fill-rule="evenodd" clip-rule="evenodd" d="M195.359 126.286L339.764 288.042L286.82 335.308L142.414 173.551L195.359 126.286Z" fill="#D51111"/>
<path d="M195.359 126.286L207.843 115.14L196.698 102.655L184.213 113.801L195.359 126.286ZM339.764 288.042L350.91 300.527L363.395 289.381L352.249 276.896L339.764 288.042ZM286.82 335.308L274.335 346.453L285.48 358.938L297.965 347.792L286.82 335.308ZM142.414 173.551L131.268 161.067L118.784 172.212L129.929 184.697L142.414 173.551ZM182.874 137.431L327.28 299.188L352.249 276.896L207.843 115.14L182.874 137.431ZM328.619 275.557L275.674 322.823L297.965 347.792L350.91 300.527L328.619 275.557ZM299.304 324.162L154.899 162.406L129.929 184.697L274.335 346.453L299.304 324.162ZM153.559 186.036L206.504 138.77L184.213 113.801L131.268 161.067L153.559 186.036Z" fill="black" mask="url(#path-3-inside-1_1_37)"/>
<mask id="path-5-inside-2_1_37" fill="white">
<path d="M61.8004 274.271C66.3848 303.844 78.4899 331.743 96.955 355.294C115.42 378.844 139.626 397.255 167.251 408.763C194.876 420.27 224.995 424.487 254.718 421.009C284.442 417.532 312.773 406.476 336.996 388.903L326.739 374.764C304.938 390.58 279.44 400.53 252.688 403.66C225.937 406.789 198.831 402.994 173.968 392.637C149.105 382.281 127.32 365.711 110.701 344.515C94.0829 323.32 83.1883 298.211 79.0624 271.595L61.8004 274.271Z"/>
</mask>
<path d="M61.8004 274.271C66.3848 303.844 78.4899 331.743 96.955 355.294C115.42 378.844 139.626 397.255 167.251 408.763C194.876 420.27 224.995 424.487 254.718 421.009C284.442 417.532 312.773 406.476 336.996 388.903L326.739 374.764C304.938 390.58 279.44 400.53 252.688 403.66C225.937 406.789 198.831 402.994 173.968 392.637C149.105 382.281 127.32 365.711 110.701 344.515C94.0829 323.32 83.1883 298.211 79.0624 271.595L61.8004 274.271Z" stroke="black" stroke-width="20.9199" mask="url(#path-5-inside-2_1_37)"/>
<mask id="path-6-inside-3_1_37" fill="white">
<path d="M394.937 176.001C385.508 154.375 371.797 134.883 354.629 118.7C337.461 102.518 317.194 89.9813 295.048 81.846C272.903 73.7107 249.34 70.1456 225.779 71.3657C202.218 72.5859 179.149 78.566 157.963 88.9453L165.648 104.632C184.715 95.2907 205.478 89.9086 226.682 88.8104C247.887 87.7123 269.094 90.9209 289.025 98.2427C308.956 105.565 327.196 116.848 342.647 131.412C358.098 145.976 370.439 163.519 378.925 182.982L394.937 176.001Z"/>
</mask>
<path d="M394.937 176.001C385.508 154.375 371.797 134.883 354.629 118.7C337.461 102.518 317.194 89.9813 295.048 81.846C272.903 73.7107 249.34 70.1456 225.779 71.3657C202.218 72.5859 179.149 78.566 157.963 88.9453L165.648 104.632C184.715 95.2907 205.478 89.9086 226.682 88.8104C247.887 87.7123 269.094 90.9209 289.025 98.2427C308.956 105.565 327.196 116.848 342.647 131.412C358.098 145.976 370.439 163.519 378.925 182.982L394.937 176.001Z" stroke="black" stroke-width="20.9199" mask="url(#path-6-inside-3_1_37)"/>
</svg>
